<svg xmlns="http://www.w3.org/2000/svg" xmlns:xlink="http://www.w3.org/1999/xlink" version="1.1" x="0px" y="0px" viewBox="0 0 100 125" enable-background="new 0 0 100 100" xml:space="preserve"><path d="M77.884,66.333c0,0-13.689-7.121-17.071-9.579l-5.445,34.462L51.694,65.67l2.361-4.872c0.176-0.605-0.258-1.168-0.844-1.491  c2.292-0.406,4.698-1.345,7.093-3.122v-5.156c0,0,4.091-4.98,4.108-10.446c0,0,0.638,0.556,1.5-0.232c0,0,1.854-0.553,1.729-9.441  c0,0-0.332-1.223-1.155-1.536c0,0,1.614-4.537-0.383-10.345c0.002,0-0.089-1.069-0.089-1.069s0.803-5.703-6.466-9.853  c0,0-6.041-5.463-17.202-1.446c0,0-3.737,2.323-5.932,0.551c0,0-1.688,5.294-0.44,6.162c0,0-1.6,0.547-2.432,6.666  c0,0-0.056,1.184-0.06,1.19c-0.899,4.654,0.031,8.145,0.031,8.145c-0.821,0.313-1.154,1.536-1.154,1.536  c-0.124,8.888,1.729,9.441,1.729,9.441c0.863,0.788,1.5,0.232,1.5,0.232c0.016,5.467,4.107,10.446,4.107,10.446v5.256  c1.263,0.813,3.896,2.255,7.232,2.923c-0.651,0.282-1.145,0.89-0.994,1.591l2.374,4.872l-3.719,25.972L39.03,56.868  c-3.623,2.55-16.915,9.465-16.915,9.465C5.578,72.996,5.209,94.814,5.209,94.814h89.581C94.791,94.814,94.424,72.996,77.884,66.333z  "/><text x="0" y="115" fill="#000000" font-size="5px" font-weight="bold" font-family="'Helvetica Neue', Helvetica, Arial-Unicode, Arial, Sans-serif">Created by Michele Zamparo</text><text x="0" y="120" fill="#000000" font-size="5px" font-weight="bold" font-family="'Helvetica Neue', Helvetica, Arial-Unicode, Arial, Sans-serif">from the Noun Project</text></svg>